<?xml version="1.0" encoding="UTF-8" standalone="no"?>
<!-- Created with Inkscape (http://www.inkscape.org/) -->

<svg
   width="210mm"
   height="297mm"
   viewBox="0 0 210 297"
   version="1.1"
   id="svg5"
   inkscape:version="1.1 (c68e22c387, 2021-05-23)"
   sodipodi:docname="drawing.svg"
   xmlns:inkscape="http://www.inkscape.org/namespaces/inkscape"
   xmlns:sodipodi="http://sodipodi.sourceforge.net/DTD/sodipodi-0.dtd"
   xmlns="http://www.w3.org/2000/svg"
   xmlns:svg="http://www.w3.org/2000/svg">
  <sodipodi:namedview
     id="namedview7"
     pagecolor="#ffffff"
     bordercolor="#666666"
     borderopacity="1.0"
     inkscape:pageshadow="2"
     inkscape:pageopacity="0.0"
     inkscape:pagecheckerboard="0"
     inkscape:document-units="mm"
     showgrid="false"
     inkscape:zoom="0.74118967"
     inkscape:cx="397.33419"
     inkscape:cy="993.67277"
     inkscape:window-width="1920"
     inkscape:window-height="1017"
     inkscape:window-x="-8"
     inkscape:window-y="-8"
     inkscape:window-maximized="1"
     inkscape:current-layer="layer1" />
  <defs
     id="defs2">
    <inkscape:perspective
       sodipodi:type="inkscape:persp3d"
       inkscape:vp_x="0 : 148.5 : 1"
       inkscape:vp_y="0 : 1000 : 0"
       inkscape:vp_z="210 : 148.5 : 1"
       inkscape:persp3d-origin="105 : 99 : 1"
       id="perspective103" />
  </defs>
  <g
     inkscape:label="Layer 1"
     inkscape:groupmode="layer"
     id="layer1">
    <g
       sodipodi:type="inkscape:box3d"
       id="g105"
       style="fill:#808080;fill-rule:evenodd;stroke:none;stroke-linejoin:round"
       inkscape:perspectiveID="#perspective103"
       inkscape:corner0="2.162811 : 0.18385486 : 0 : 1"
       inkscape:corner7="0.12267718 : 0.023049622 : 0.25 : 1">
      <path
         sodipodi:type="inkscape:box3dside"
         id="path117"
         style="fill:#808080;fill-rule:evenodd;stroke:none;stroke-linejoin:round"
         inkscape:box3dsidetype="11"
         d="M 46.149641,109.13221 114.73929,50.622034 V 167.76919 L 46.149641,156.25032 Z"
         points="114.73929,50.622034 114.73929,167.76919 46.149641,156.25032 46.149641,109.13221 " />
      <path
         sodipodi:type="inkscape:box3dside"
         id="path107"
         style="fill:#808080;fill-rule:evenodd;stroke:none;stroke-linejoin:round"
         inkscape:box3dsidetype="6"
         d="m 33.198317,106.02043 v 50.84251 l 12.951324,-0.61262 v -47.11811 z"
         points="33.198317,156.86294 46.149641,156.25032 46.149641,109.13221 33.198317,106.02043 " />
      <path
         sodipodi:type="inkscape:box3dside"
         id="path115"
         style="fill:#808080;fill-rule:evenodd;stroke:none;stroke-linejoin:round"
         inkscape:box3dsidetype="13"
         d="M 33.198317,156.86294 93.526442,172.0601 114.73929,167.76919 46.149641,156.25032 Z"
         points="93.526442,172.0601 114.73929,167.76919 46.149641,156.25032 33.198317,156.86294 " />
      <path
         sodipodi:type="inkscape:box3dside"
         id="path109"
         style="fill:#808080;fill-rule:evenodd;stroke:none;stroke-linejoin:round"
         inkscape:box3dsidetype="5"
         d="M 33.198317,106.02043 93.526442,28.826372 114.73929,50.622034 46.149641,109.13221 Z"
         points="93.526442,28.826372 114.73929,50.622034 46.149641,109.13221 33.198317,106.02043 " />
      <path
         sodipodi:type="inkscape:box3dside"
         id="path113"
         style="fill:#808080;fill-rule:evenodd;stroke:none;stroke-linejoin:round"
         inkscape:box3dsidetype="14"
         d="M 93.526442,28.826372 V 172.0601 l 21.212848,-4.29091 V 50.622034 Z"
         points="93.526442,172.0601 114.73929,167.76919 114.73929,50.622034 93.526442,28.826372 " />
      <path
         sodipodi:type="inkscape:box3dside"
         id="path111"
         style="fill:#808080;fill-rule:evenodd;stroke:none;stroke-linejoin:round"
         inkscape:box3dsidetype="3"
         d="M 33.198317,106.02043 93.526442,28.826372 V 172.0601 L 33.198317,156.86294 Z"
         points="93.526442,28.826372 93.526442,172.0601 33.198317,156.86294 33.198317,106.02043 " />
    </g>
    <g
       sodipodi:type="inkscape:box3d"
       id="g315"
       style="fill:#000000"
       inkscape:perspectiveID="#perspective103"
       inkscape:corner0="1.5577515 : 0.070500004 : 0 : 1"
       inkscape:corner7="-0.32997399 : 0.053514075 : 0.25 : 1">
      <path
         sodipodi:type="inkscape:box3dside"
         id="path327"
         style="fill:#000000;fill-rule:evenodd;stroke:none;stroke-linejoin:round"
         inkscape:box3dsidetype="11"
         d="M 56.094709,141.02071 171.19082,125.67456 V 144.137 l -115.096111,2.93336 z"
         points="171.19082,125.67456 171.19082,144.137 56.094709,147.07036 56.094709,141.02071 " />
      <path
         sodipodi:type="inkscape:box3dside"
         id="path317"
         style="fill:#000000;fill-rule:evenodd;stroke:none;stroke-linejoin:round"
         inkscape:box3dsidetype="6"
         d="m 41.051682,140.28967 v 6.64096 l 15.043027,0.13973 v -6.04965 z"
         points="41.051682,146.93063 56.094709,147.07036 56.094709,141.02071 41.051682,140.28967 " />
      <path
         sodipodi:type="inkscape:box3dside"
         id="path319"
         style="fill:#000000;fill-rule:evenodd;stroke:none;stroke-linejoin:round"
         inkscape:box3dsidetype="5"
         d="m 41.051682,140.28967 115.658658,-23.13174 14.48048,8.51663 -115.096111,15.34615 z"
         points="156.71034,117.15793 171.19082,125.67456 56.094709,141.02071 41.051682,140.28967 " />
      <path
         sodipodi:type="inkscape:box3dside"
         id="path325"
         style="fill:#000000;fill-rule:evenodd;stroke:none;stroke-linejoin:round"
         inkscape:box3dsidetype="13"
         d="m 41.051682,146.93063 115.658658,-4.42155 14.48048,1.62792 -115.096111,2.93336 z"
         points="156.71034,142.50908 171.19082,144.137 56.094709,147.07036 41.051682,146.93063 " />
      <path
         sodipodi:type="inkscape:box3dside"
         id="path323"
         style="fill:#000000;fill-rule:evenodd;stroke:none;stroke-linejoin:round"
         inkscape:box3dsidetype="14"
         d="m 156.71034,117.15793 v 25.35115 l 14.48048,1.62792 v -18.46244 z"
         points="156.71034,142.50908 171.19082,144.137 171.19082,125.67456 156.71034,117.15793 " />
      <path
         sodipodi:type="inkscape:box3dside"
         id="path321"
         style="fill:#000000;fill-rule:evenodd;stroke:none;stroke-linejoin:round"
         inkscape:box3dsidetype="3"
         d="M 41.051682,140.28967 156.71034,117.15793 v 25.35115 l -115.658658,4.42155 z"
         points="156.71034,117.15793 156.71034,142.50908 41.051682,146.93063 41.051682,140.28967 " />
    </g>
    <g
       sodipodi:type="inkscape:box3d"
       id="g357"
       style="fill:#4d4d4d"
       inkscape:perspectiveID="#perspective103"
       inkscape:corner0="0.97410351 : 0.27570807 : 0 : 1"
       inkscape:corner7="0.51619289 : 0.2053763 : 0.25 : 1">
      <path
         sodipodi:type="inkscape:box3dside"
         id="path369"
         style="fill:#4d4d4d;fill-rule:evenodd;stroke:none;stroke-linejoin:round"
         inkscape:box3dsidetype="11"
         d="M 70.815051,46.792479 89.17486,20.423357 V 60.244471 L 70.815051,78.415004 Z"
         points="89.17486,20.423357 89.17486,60.244471 70.815051,78.415004 70.815051,46.792479 " />
      <path
         sodipodi:type="inkscape:box3dside"
         id="path359"
         style="fill:#4d4d4d;fill-rule:evenodd;stroke:none;stroke-linejoin:round"
         inkscape:box3dsidetype="6"
         d="m 53.188702,33.912262 v 35.627194 l 17.626349,8.875548 V 46.792479 Z"
         points="53.188702,69.539456 70.815051,78.415004 70.815051,46.792479 53.188702,33.912262 " />
      <path
         sodipodi:type="inkscape:box3dside"
         id="path361"
         style="fill:#4d4d4d;fill-rule:evenodd;stroke:none;stroke-linejoin:round"
         inkscape:box3dsidetype="5"
         d="M 53.188702,33.912262 69.252404,-0.69477511 89.17486,20.423357 70.815051,46.792479 Z"
         points="69.252404,-0.69477511 89.17486,20.423357 70.815051,46.792479 53.188702,33.912262 " />
      <path
         sodipodi:type="inkscape:box3dside"
         id="path367"
         style="fill:#4d4d4d;fill-rule:evenodd;stroke:none;stroke-linejoin:round"
         inkscape:box3dsidetype="13"
         d="M 53.188702,69.539456 69.252404,45.69231 89.17486,60.244471 70.815051,78.415004 Z"
         points="69.252404,45.69231 89.17486,60.244471 70.815051,78.415004 53.188702,69.539456 " />
      <path
         sodipodi:type="inkscape:box3dside"
         id="path365"
         style="fill:#4d4d4d;fill-rule:evenodd;stroke:none;stroke-linejoin:round"
         inkscape:box3dsidetype="14"
         d="M 69.252404,-0.69477511 V 45.69231 L 89.17486,60.244471 V 20.423357 Z"
         points="69.252404,45.69231 89.17486,60.244471 89.17486,20.423357 69.252404,-0.69477511 " />
      <path
         sodipodi:type="inkscape:box3dside"
         id="path363"
         style="fill:#4d4d4d;fill-rule:evenodd;stroke:none;stroke-linejoin:round"
         inkscape:box3dsidetype="3"
         d="M 53.188702,33.912262 69.252404,-0.69477511 V 45.69231 L 53.188702,69.539456 Z"
         points="69.252404,-0.69477511 69.252404,45.69231 53.188702,69.539456 53.188702,33.912262 " />
    </g>
  </g>
</svg>
